<?xml version="1.0" encoding="UTF-8"?>
<svg version="1.1" xmlns="http://www.w3.org/2000/svg" width="558" height="225">
<path d="M0 0 C184.14 0 368.28 0 558 0 C558 74.25 558 148.5 558 225 C373.86 225 189.72 225 0 225 C0 150.75 0 76.5 0 0 Z " fill="#FDFEFE" transform="translate(0,0)"/>
<path d="M0 0 C0.29687841 2.77023573 0.39901082 5.31732564 0.37231445 8.08984375 C0.37596512 8.92573029 0.37961578 9.76161682 0.38337708 10.62283325 C0.39150401 13.39459349 0.37785487 16.16577303 0.36328125 18.9375 C0.3627629 20.85799153 0.36327963 22.7784836 0.36479187 24.69897461 C0.36470205 28.72745668 0.35425285 32.75573903 0.33618164 36.78417969 C0.31349415 41.95631803 0.31294933 47.12816434 0.31969929 52.30033875 C0.32303565 56.26707571 0.31641547 60.2337457 0.30657005 64.20046997 C0.30271201 66.10791677 0.30157233 68.015371 0.3031559 69.92282104 C0.30352543 72.58541134 0.29093796 75.2476227 0.2746582 77.91015625 C0.27713562 78.70398712 0.27961304 79.49781799 0.28216553 80.31570435 C0.22874075 85.77125925 0.22874075 85.77125925 -2 88 C-4.31225586 88.4230957 -4.31225586 88.4230957 -7.21484375 88.67578125 C-8.28524902 88.77898682 -9.3556543 88.88219238 -10.45849609 88.98852539 C-11.60656738 89.09543701 -12.75463867 89.20234863 -13.9375 89.3125 C-33.11709324 91.20213854 -33.11709324 91.20213854 -51 98 C-49.3745692 97.85904936 -47.74965949 97.71207913 -46.125 97.5625 C-45.22007813 97.48128906 -44.31515625 97.40007812 -43.3828125 97.31640625 C-40.98889139 97.13010715 -40.98889139 97.13010715 -39 96 C-37.58117119 95.88252522 -36.15728586 95.82314572 -34.73388672 95.79467773 C-33.84080811 95.77449585 -32.94772949 95.75431396 -32.02758789 95.73352051 C-30.6178772 95.70880676 -30.6178772 95.70880676 -29.1796875 95.68359375 C-28.31674072 95.66494263 -27.45379395 95.6462915 -26.56469727 95.6270752 C-23.33490433 95.55867258 -20.10493951 95.49859092 -16.875 95.4375 C-9.65625 95.293125 -2.4375 95.14875 5 95 C5.495 52.925 5.495 52.925 6 10 C11 11 11 11 13 13 C13.20904029 15.71905049 13.29364646 18.33709208 13.29052734 21.05810547 C13.29724457 21.89077942 13.30396179 22.72345337 13.31088257 23.58135986 C13.32993327 26.34336255 13.3337904 29.10512314 13.3359375 31.8671875 C13.34236088 33.78288881 13.34908889 35.69858912 13.35610962 37.61428833 C13.36810034 41.63432083 13.37178864 45.65426728 13.37060547 49.67431641 C13.37040226 54.82846358 13.39769821 59.98205947 13.43214989 65.13607597 C13.45437659 69.09431497 13.4584443 73.05242046 13.45738602 77.01071548 C13.4597486 78.91094995 13.46860894 80.81118774 13.48405075 82.71136093 C13.50362402 85.36900262 13.49790702 88.0254449 13.48583984 90.68310547 C13.49707886 91.46974579 13.50831787 92.25638611 13.51989746 93.06686401 C13.4803513 96.49033709 13.25507582 98.62341156 11.31434631 101.48866272 C8.48045094 103.33928106 6.85627527 103.49886809 3.48461914 103.49829102 C2.37989761 103.50832657 1.27517609 103.51836212 0.13697815 103.52870178 C-1.64592369 103.51642799 -1.64592369 103.51642799 -3.46484375 103.50390625 C-5.30303429 103.5180381 -5.30303429 103.5180381 -7.17835999 103.53245544 C-11.09824287 103.56116631 -15.0175203 103.56418126 -18.9375 103.5625 C-22.85382089 103.5661042 -26.76969993 103.57560772 -30.68592834 103.60325623 C-33.12323917 103.6200781 -35.56069557 103.62289444 -37.99803162 103.61024475 C-39.65984215 103.62056984 -39.65984215 103.62056984 -41.35522461 103.63110352 C-42.32689072 103.63014175 -43.29855682 103.62917999 -44.29966736 103.62818909 C-47.47894016 104.06594564 -49.32950364 105.27075438 -52 107 C-54.75390625 107.3984375 -54.75390625 107.3984375 -57.5625 107.375 C-58.95662109 107.38660156 -58.95662109 107.38660156 -60.37890625 107.3984375 C-63 107 -63 107 -64.82385254 105.49815369 C-67.55525929 103.61773558 -69.14508021 103.62778971 -72.43945312 103.63110352 C-73.52738159 103.62422012 -74.61531006 103.61733673 -75.73620605 103.61024475 C-76.90607056 103.61640305 -78.07593506 103.62256134 -79.28125 103.62890625 C-81.75651183 103.61152798 -84.23177222 103.59394355 -86.70703125 103.57617188 C-90.61119186 103.56608297 -94.51526046 103.56250665 -98.41943359 103.56420898 C-102.18615326 103.56064786 -105.95215719 103.53333964 -109.71875 103.50390625 C-110.8886145 103.51208878 -112.058479 103.5202713 -113.26379395 103.52870178 C-114.35172241 103.51866623 -115.43965088 103.50863068 -116.56054688 103.49829102 C-117.5166687 103.49845718 -118.47279053 103.49862335 -119.45788574 103.49879456 C-122.92605625 102.8182962 -124.01442094 101.92997568 -126 99 C-126.38428051 96.06983442 -126.52717584 93.51888592 -126.48583984 90.59130859 C-126.48963654 89.74537643 -126.49343323 88.89944427 -126.49734497 88.02787781 C-126.5047491 85.23435281 -126.48337371 82.44186988 -126.4609375 79.6484375 C-126.45855332 77.70838544 -126.4576477 75.76833105 -126.4581604 73.82827759 C-126.45503285 69.76460293 -126.43846833 65.70128121 -126.41162109 61.63769531 C-126.37759607 56.42076329 -126.36999379 51.20421832 -126.37151146 45.98718834 C-126.37096854 41.98269942 -126.36001464 37.97829565 -126.34550858 33.97383499 C-126.33913142 32.04964467 -126.33519954 30.12544468 -126.33372116 28.20124435 C-126.32940042 25.51729519 -126.31192751 22.8337625 -126.29052734 20.14990234 C-126.29143372 19.34986282 -126.29234009 18.5498233 -126.29327393 17.72554016 C-126.22895889 12.22895889 -126.22895889 12.22895889 -124 10 C-122.35 10 -120.7 10 -119 10 C-119 38.38 -119 66.76 -119 96 C-104.81 96 -90.62 96 -76 96 C-71.71 96.66 -67.42 97.32 -63 98 C-74.39593719 93.91039417 -85.73258824 90.65164976 -97.83984375 89.515625 C-99.06417114 89.39900513 -99.06417114 89.39900513 -100.31323242 89.2800293 C-101.9068861 89.13776445 -103.50227281 89.01347443 -105.09887695 88.90942383 C-110.50127716 88.45037283 -110.50127716 88.45037283 -112.70817566 86.45742798 C-114.52373444 83.00370381 -114.41068485 79.76649217 -114.37231445 75.95849609 C-114.37596512 75.15157822 -114.37961578 74.34466034 -114.38337708 73.51329041 C-114.39147431 70.84979114 -114.37788189 68.18690171 -114.36328125 65.5234375 C-114.36276264 63.67306519 -114.36328036 61.82269232 -114.36479187 59.97232056 C-114.36470219 56.09702313 -114.35427953 52.22193392 -114.33618164 48.34667969 C-114.31346292 43.37189207 -114.31295653 38.39740787 -114.31969929 33.42258263 C-114.3230351 29.60339648 -114.31641704 25.78427993 -114.30657005 21.96510696 C-114.30271345 20.13022856 -114.30157174 18.29534243 -114.3031559 16.46046066 C-114.30352542 13.90106097 -114.29093951 11.3420555 -114.2746582 8.78271484 C-114.27713562 8.02007828 -114.27961304 7.25744171 -114.28216553 6.47169495 C-114.22874546 1.22874546 -114.22874546 1.22874546 -112 -1 C-99.49820034 -2.90999717 -85.09723827 1.04639369 -73.3125 4.9375 C-72.21796509 5.29835693 -72.21796509 5.29835693 -71.10131836 5.66650391 C-67.55346909 6.90199988 -64.36209243 8.29456521 -61.1328125 10.22265625 C-58.22736383 12.32526736 -58.22736383 12.32526736 -55.5625 11.5 C-54.716875 11.005 -53.87125 10.51 -53 10 C-41.34000609 3.70469812 -12.17151751 -8.11434501 0 0 Z " fill="#21717F" transform="translate(153,64)"/>
<path d="M0 0 C5.76126962 3.34494766 8.94396107 7.88792213 11.875 13.75 C13.54624084 22.44045238 13.32606981 30.39386409 8.5 38 C6 40.875 6 40.875 3.5 43 C2.79875 43.598125 2.0975 44.19625 1.375 44.8125 C-0.5 46 -0.5 46 -3.5 46 C-1.09686362 48.51236985 0.28319518 49.95013095 3.8828125 50.09765625 C4.78773438 50.08605469 5.69265625 50.07445312 6.625 50.0625 C7.53507812 50.05347656 8.44515625 50.04445312 9.3828125 50.03515625 C10.08148438 50.02355469 10.78015625 50.01195312 11.5 50 C13.53125 53.7265625 13.53125 53.7265625 13.25 56.1875 C12.5 58 12.5 58 10.5 59 C3.16896088 59.99000357 -1.64494354 59.05625433 -7.625 54.703125 C-9.5 53 -9.5 53 -10.98828125 50.85546875 C-12.85352051 48.5660924 -13.80961589 48.43433281 -16.6875 48.0625 C-23.34563182 46.80665725 -28.35278901 43.89158402 -32.4375 38.4375 C-37.10366487 31.58851902 -36.21016104 21.94864609 -35.5 14 C-33.99264436 7.76172696 -29.79548011 3.45692465 -24.5 0 C-17.04525012 -3.67683426 -7.51377493 -3.38632952 0 0 Z " fill="#0B0B0B" transform="translate(222.5,91)"/>
<path d="M0 0 C1.56125851 0.00399299 3.12251789 0.01875614 4.68359375 0.04296875 C5.47701172 0.04361328 6.27042969 0.04425781 7.08789062 0.04492188 C12.98083853 0.09021353 12.98083853 0.09021353 14.12109375 1.23046875 C14.19381116 3.5836043 14.20480243 5.93880543 14.18359375 8.29296875 C14.17457031 9.58332031 14.16554687 10.87367187 14.15625 12.203125 C14.14464844 13.20214844 14.13304687 14.20117188 14.12109375 15.23046875 C15.03632812 15.20726563 15.9515625 15.1840625 16.89453125 15.16015625 C18.08304688 15.14210938 19.2715625 15.1240625 20.49609375 15.10546875 C21.67945313 15.08226563 22.8628125 15.0590625 24.08203125 15.03515625 C27.12109375 15.23046875 27.12109375 15.23046875 29.12109375 17.23046875 C29.32003174 19.75522591 29.3995681 22.14561624 29.37109375 24.66796875 C29.38269531 25.68987305 29.38269531 25.68987305 29.39453125 26.73242188 C29.37998809 30.44456317 29.23049793 32.06636247 27.12109375 35.23046875 C24.30078125 35.5234375 24.30078125 35.5234375 20.99609375 35.41796875 C19.35253906 35.37736328 19.35253906 35.37736328 17.67578125 35.3359375 C16.83273438 35.30113281 15.9896875 35.26632813 15.12109375 35.23046875 C15.14429688 36.07351562 15.1675 36.9165625 15.19140625 37.78515625 C15.20945313 38.88085938 15.2275 39.9765625 15.24609375 41.10546875 C15.26929688 42.19601563 15.2925 43.2865625 15.31640625 44.41015625 C15.12109375 47.23046875 15.12109375 47.23046875 13.12109375 49.23046875 C10.24767314 49.42903847 7.49247387 49.50875821 4.62109375 49.48046875 C3.44353516 49.49207031 3.44353516 49.49207031 2.2421875 49.50390625 C-3.62559838 49.48377662 -3.62559838 49.48377662 -5.87890625 47.23046875 C-6.07421875 44.41015625 -6.07421875 44.41015625 -6.00390625 41.10546875 C-5.98585938 40.00976562 -5.9678125 38.9140625 -5.94921875 37.78515625 C-5.92601563 36.94210938 -5.9028125 36.0990625 -5.87890625 35.23046875 C-7.14347656 35.26527344 -7.14347656 35.26527344 -8.43359375 35.30078125 C-10.07714844 35.32785156 -10.07714844 35.32785156 -11.75390625 35.35546875 C-12.84445313 35.37867188 -13.935 35.401875 -15.05859375 35.42578125 C-17.87890625 35.23046875 -17.87890625 35.23046875 -19.87890625 33.23046875 C-20.07747597 30.35704814 -20.15719571 27.60184887 -20.12890625 24.73046875 C-20.13664062 23.94542969 -20.144375 23.16039063 -20.15234375 22.3515625 C-20.13221412 16.48377662 -20.13221412 16.48377662 -17.87890625 14.23046875 C-15.05859375 14.03515625 -15.05859375 14.03515625 -11.75390625 14.10546875 C-10.65820312 14.12351562 -9.5625 14.1415625 -8.43359375 14.16015625 C-7.59054688 14.18335937 -6.7475 14.2065625 -5.87890625 14.23046875 C-5.90210937 13.38742188 -5.9253125 12.544375 -5.94921875 11.67578125 C-5.96726562 10.58007812 -5.9853125 9.484375 -6.00390625 8.35546875 C-6.02710937 7.26492187 -6.0503125 6.174375 -6.07421875 5.05078125 C-5.75597268 0.45530794 -4.48811611 0.26666551 0 0 Z " fill="#267582" transform="translate(91.87890625,92.76953125)"/>
<path d="M0 0 C5 1 5 1 7 3 C7.20904029 5.71905049 7.29364646 8.33709208 7.29052734 11.05810547 C7.29724457 11.89077942 7.30396179 12.72345337 7.31088257 13.58135986 C7.32993327 16.34336255 7.3337904 19.10512314 7.3359375 21.8671875 C7.34236088 23.78288881 7.34908889 25.69858912 7.35610962 27.61428833 C7.36810034 31.63432083 7.37178864 35.65426728 7.37060547 39.67431641 C7.37040226 44.82846358 7.39769821 49.98205947 7.43214989 55.13607597 C7.45437659 59.09431497 7.4584443 63.05242046 7.45738602 67.01071548 C7.4597486 68.91094995 7.46860894 70.81118774 7.48405075 72.71136093 C7.50362402 75.36900262 7.49790702 78.0254449 7.48583984 80.68310547 C7.49707886 81.46974579 7.50831787 82.25638611 7.51989746 83.06686401 C7.48044178 86.48250438 7.25422974 88.62271538 5.32504272 91.48568726 C2.44899697 93.35887121 0.73488914 93.51562045 -2.68652344 93.54589844 C-3.82740417 93.56561707 -4.96828491 93.58533569 -6.14373779 93.60565186 C-7.36989807 93.60688049 -8.59605835 93.60810913 -9.859375 93.609375 C-11.11888977 93.62591125 -12.37840454 93.64244751 -13.67608643 93.65948486 C-17.01682673 93.69982834 -20.35680424 93.72314824 -23.69769287 93.73822021 C-27.10981743 93.75780505 -30.52165915 93.79977332 -33.93359375 93.83984375 C-40.6223269 93.91385047 -47.31095313 93.96542092 -54 94 C-54.33 92.68 -54.66 91.36 -55 90 C-56.65 90 -58.3 90 -60 90 C-57.42337719 87.42337719 -56.07916539 87.65884312 -52.5 87.4375 C-48.60401365 87.26480654 -48.60401365 87.26480654 -45 86 C-43.58117119 85.88252522 -42.15728586 85.82314572 -40.73388672 85.79467773 C-39.84080811 85.77449585 -38.94772949 85.75431396 -38.02758789 85.73352051 C-36.6178772 85.70880676 -36.6178772 85.70880676 -35.1796875 85.68359375 C-34.31674072 85.66494263 -33.45379395 85.6462915 -32.56469727 85.6270752 C-29.33490433 85.55867258 -26.10493951 85.49859092 -22.875 85.4375 C-15.65625 85.293125 -8.4375 85.14875 -1 85 C-0.67 56.95 -0.34 28.9 0 0 Z " fill="#307683" transform="translate(159,74)"/>
<path d="M0 0 C1.65 0 3.3 0 5 0 C5 28.38 5 56.76 5 86 C19.19 86 33.38 86 48 86 C51.3 86.66 54.6 87.32 58 88 C60.33042479 88.35309467 62.66277542 88.69514462 65 89 C65 89.33 65 89.66 65 90 C62.36 90 59.72 90 57 90 C57 90.99 57 91.98 57 93 C49.24051046 93.10133362 41.48119124 93.17143783 33.72119141 93.21972656 C31.08082706 93.23985475 28.44050735 93.26715987 25.80029297 93.30175781 C22.00737499 93.3502205 18.21504584 93.3729572 14.421875 93.390625 C12.64825592 93.42159271 12.64825592 93.42159271 10.83880615 93.45318604 C9.73796692 93.45348816 8.63712769 93.45379028 7.50292969 93.45410156 C6.53474304 93.46298401 5.5665564 93.47186646 4.56903076 93.48101807 C2 93 2 93 -0.31356812 91.49716187 C-2.69919575 87.96467507 -2.54396061 84.70764908 -2.48583984 80.59130859 C-2.48963654 79.74537643 -2.49343323 78.89944427 -2.49734497 78.02787781 C-2.5047491 75.23435281 -2.48337371 72.44186988 -2.4609375 69.6484375 C-2.45855332 67.70838544 -2.4576477 65.76833105 -2.4581604 63.82827759 C-2.45503285 59.76460293 -2.43846833 55.70128121 -2.41162109 51.63769531 C-2.37759607 46.42076329 -2.36999379 41.20421832 -2.37151146 35.98718834 C-2.37096854 31.98269942 -2.36001464 27.97829565 -2.34550858 23.97383499 C-2.33913142 22.04964467 -2.33519954 20.12544468 -2.33372116 18.20124435 C-2.32940042 15.51729519 -2.31192751 12.8337625 -2.29052734 10.14990234 C-2.29143372 9.34986282 -2.29234009 8.5498233 -2.29327393 7.72554016 C-2.22895889 2.22895889 -2.22895889 2.22895889 0 0 Z " fill="#237380" transform="translate(29,74)"/>
<path d="M0 0 C3.5625 0.125 3.5625 0.125 5.5625 1.125 C5.5625 10.365 5.5625 19.605 5.5625 29.125 C8.84302674 25.84447326 11.10328994 23.40468728 13.6875 19.8125 C15.94651977 17.14274936 16.97290014 16.22923425 20.45703125 15.61328125 C23.20262363 15.62385478 25.84120768 15.77069069 28.5625 16.125 C24.65739511 21.63219921 20.46532356 26.48327355 15.5625 31.125 C19.04144944 36.45513354 22.84700723 41.47458679 26.734375 46.515625 C28.5625 49.125 28.5625 49.125 28.5625 51.125 C24.89336283 52.19947618 22.20973466 52.35364404 18.5625 51.125 C14.56044174 47.25279438 11.64626808 42.33998333 8.75415039 37.61547852 C7.53510673 35.81392287 7.53510673 35.81392287 4.5625 35.125 C4.5625 40.405 4.5625 45.685 4.5625 51.125 C1.5925 51.125 -1.3775 51.125 -4.4375 51.125 C-4.46276787 44.02255001 -4.48033201 36.92011152 -4.49243164 29.81762695 C-4.49747349 27.39932828 -4.50430678 24.98103267 -4.51293945 22.56274414 C-4.52501157 19.09520717 -4.53072963 15.62771034 -4.53515625 12.16015625 C-4.54031754 11.07162857 -4.54547882 9.98310089 -4.55079651 8.86158752 C-4.55087204 7.86062546 -4.55094757 6.85966339 -4.55102539 5.82836914 C-4.553246 4.94234512 -4.55546661 4.05632111 -4.55775452 3.14344788 C-4.34953559 -0.35146493 -3.62129292 0.13168338 0 0 Z " fill="#121213" transform="translate(338.4375,86.875)"/>
<path d="M0 0 C2.82748811 2.66716662 4.75709959 5.27129878 6 9 C6 11.97 6 14.94 6 18 C-1.92 18 -9.84 18 -18 18 C-16.13614065 23.26226628 -16.13614065 23.26226628 -12 26 C-7.70703767 26.55504968 -4.70083161 26.46722108 -1 24 C1.96076291 24.35888035 2.84658021 24.84658021 5 27 C5 27.99 5 28.98 5 30 C-1.57209229 33.63493499 -7.48869705 35.26296244 -15 34 C-21.23453873 31.64380309 -24.2960347 27.94872367 -27 22 C-28.57190067 17.80826488 -28.73519034 13.2097721 -27.31640625 8.9453125 C-24.8672935 3.5592969 -21.67046148 -0.46077422 -16.0625 -2.8125 C-9.8686616 -3.37557622 -5.53445388 -3.0746966 0 0 Z " fill="#2E4A93" transform="translate(508,105)"/>
<path d="M0 0 C3.125 2.125 3.125 2.125 4.125 4.125 C2.6875 6.75 2.6875 6.75 1.125 9.125 C-1.63776177 8.60231534 -4.2010876 8.01630413 -6.875 7.125 C-8.66379802 7.0059314 -10.4572856 6.94977887 -12.25 6.9375 C-13.18585938 6.92332031 -14.12171875 6.90914062 -15.0859375 6.89453125 C-18.08420966 7.14228763 -20.20366083 7.75183793 -22.875 9.125 C-24.18568333 11.56788628 -24.18568333 11.56788628 -24.875 14.125 C-25.205 14.785 -25.535 15.445 -25.875 16.125 C-26.72508563 26.18542047 -26.72508563 26.18542047 -22.875 35.125 C-18.54494241 39.13822411 -14.95167328 39.66875148 -9.2734375 39.47265625 C-6.11134271 39.01430701 -3.6837931 37.59627258 -0.875 36.125 C1.375 36.6875 1.375 36.6875 3.125 38.125 C4.375 40.25 4.375 40.25 5.125 42.125 C-3.44257506 47.96652845 -9.5550497 49.12921877 -19.875 48.125 C-26.54405227 46.19003554 -30.11029119 42.18868833 -33.68359375 36.40625 C-37.52489291 29.05110668 -38.18850326 21.66166564 -36.2578125 13.5234375 C-33.69139986 6.91435715 -28.86897588 2.15595032 -22.578125 -1.04296875 C-15.60868304 -3.18818716 -6.62185558 -3.22079364 0 0 Z " fill="#2D4996" transform="translate(407.875,90.875)"/>
<path d="M0 0 C4.10432588 4.4283516 5.12655424 6.92982698 5.09765625 12.8828125 C5.09443359 14.04941406 5.09121094 15.21601562 5.08789062 16.41796875 C5.07951172 17.64128906 5.07113281 18.86460938 5.0625 20.125 C5.05798828 21.35605469 5.05347656 22.58710937 5.04882812 23.85546875 C5.0370133 26.90369392 5.02054028 29.95182314 5 33 C1.625 33.1875 1.625 33.1875 -2 33 C-2.66 32.01 -3.32 31.02 -4 30 C-4.598125 30.474375 -5.19625 30.94875 -5.8125 31.4375 C-10.15038997 34.53599283 -14.84802981 34.67789081 -20 34 C-22.87029869 32.20606332 -24.49131638 31.01736724 -26 28 C-26.47833108 24.91809471 -26.55325078 22.07479759 -26 19 C-22.20888951 14.65409285 -18.72162426 13.08513564 -13 12 C-10.30734855 11.86276469 -7.69968836 11.90527409 -5 12 C-5.96776098 8.20452079 -5.96776098 8.20452079 -8 5 C-12.47480899 4.82451729 -16.60833973 5.14309068 -21 6 C-23 3 -23 3 -23 0.9375 C-22 -1 -22 -1 -19.5 -2.25 C-12.34170964 -3.78391936 -6.52404912 -3.70975342 0 0 Z " fill="#334E96" transform="translate(443,105)"/>
<path d="M0 0 C3.74635624 1.70886425 5.39473666 3.21315766 7.875 6.4375 C9.95032815 13.00937248 9.99407032 20.01778903 7.8125 26.5625 C5.05116477 30.27601979 2.4005545 32.5331485 -2 34 C-8.43431995 34.41511742 -11.67853773 33.82939379 -16.6875 29.5625 C-20.80847851 24.6565732 -20.41018683 19.60533772 -20.3203125 13.4296875 C-19.82012159 8.07398486 -18.20556098 5.05010294 -14.2265625 1.3515625 C-9.91180844 -1.26756891 -4.86538577 -0.57967782 0 0 Z " fill="#F9F9F9" transform="translate(216,97)"/>
<path d="M0 0 C2.97 0 5.94 0 9 0 C9.02505615 0.78238037 9.0501123 1.56476074 9.07592773 2.37084961 C9.19149788 5.89324949 9.31439949 9.4153556 9.4375 12.9375 C9.47681641 14.16919922 9.51613281 15.40089844 9.55664062 16.66992188 C9.61948242 18.4246582 9.61948242 18.4246582 9.68359375 20.21484375 C9.72025146 21.29886475 9.75690918 22.38288574 9.79467773 23.49975586 C9.72364265 25.939263 9.72364265 25.939263 11 27 C16.32673036 27.33856828 16.32673036 27.33856828 21 25 C21.51012565 22.38803709 21.51012565 22.38803709 21.51171875 19.3359375 C21.54716797 18.21445313 21.58261719 17.09296875 21.61914062 15.9375 C21.64169922 14.761875 21.66425781 13.58625 21.6875 12.375 C21.72166016 11.19164063 21.75582031 10.00828125 21.79101562 8.7890625 C21.87370575 5.8594694 21.94278714 2.9301836 22 0 C24.97 0 27.94 0 31 0 C31 11.55 31 23.1 31 35 C28.69 35 26.38 35 24 35 C23.34 34.01 22.68 33.02 22 32 C21.401875 32.474375 20.80375 32.94875 20.1875 33.4375 C16.66167217 35.95594845 13.36842833 36.39511927 9.0703125 36.35546875 C5.33653865 35.71438682 3.57843318 33.70421041 1 31 C-0.11911712 27.64264863 -0.11365586 25.11794614 -0.09765625 21.58203125 C-0.09443359 20.32841797 -0.09121094 19.07480469 -0.08789062 17.78320312 C-0.07951172 16.47287109 -0.07113281 15.16253906 -0.0625 13.8125 C-0.05748317 12.47721519 -0.05292059 11.14192859 -0.04882812 9.80664062 C-0.03702695 6.53771527 -0.02056297 3.26888009 0 0 Z " fill="#0C0C0C" transform="translate(242,103)"/>
<path d="M0 0 C1.56125851 0.00399299 3.12251789 0.01875614 4.68359375 0.04296875 C5.47701172 0.04361328 6.27042969 0.04425781 7.08789062 0.04492188 C12.98083853 0.09021353 12.98083853 0.09021353 14.12109375 1.23046875 C14.19381116 3.5836043 14.20480243 5.93880543 14.18359375 8.29296875 C14.17457031 9.58332031 14.16554687 10.87367187 14.15625 12.203125 C14.14464844 13.20214844 14.13304687 14.20117188 14.12109375 15.23046875 C15.03632812 15.20726563 15.9515625 15.1840625 16.89453125 15.16015625 C18.08304688 15.14210938 19.2715625 15.1240625 20.49609375 15.10546875 C21.67945313 15.08226563 22.8628125 15.0590625 24.08203125 15.03515625 C27.12109375 15.23046875 27.12109375 15.23046875 29.12109375 17.23046875 C29.32003174 19.75522591 29.3995681 22.14561624 29.37109375 24.66796875 C29.38269531 25.68987305 29.38269531 25.68987305 29.39453125 26.73242188 C29.37998809 30.44456317 29.23049793 32.06636247 27.12109375 35.23046875 C24.30078125 35.5234375 24.30078125 35.5234375 20.99609375 35.41796875 C19.35253906 35.37736328 19.35253906 35.37736328 17.67578125 35.3359375 C16.83273438 35.30113281 15.9896875 35.26632813 15.12109375 35.23046875 C15.14429688 36.07351562 15.1675 36.9165625 15.19140625 37.78515625 C15.20945313 38.88085938 15.2275 39.9765625 15.24609375 41.10546875 C15.26929688 42.19601563 15.2925 43.2865625 15.31640625 44.41015625 C15.12109375 47.23046875 15.12109375 47.23046875 13.12109375 49.23046875 C10.24767314 49.42903847 7.49247387 49.50875821 4.62109375 49.48046875 C3.44353516 49.49207031 3.44353516 49.49207031 2.2421875 49.50390625 C-3.62559838 49.48377662 -3.62559838 49.48377662 -5.87890625 47.23046875 C-6.07421875 44.41015625 -6.07421875 44.41015625 -6.00390625 41.10546875 C-5.98585938 40.00976562 -5.9678125 38.9140625 -5.94921875 37.78515625 C-5.92601563 36.94210938 -5.9028125 36.0990625 -5.87890625 35.23046875 C-7.14347656 35.26527344 -7.14347656 35.26527344 -8.43359375 35.30078125 C-10.07714844 35.32785156 -10.07714844 35.32785156 -11.75390625 35.35546875 C-12.84445313 35.37867188 -13.935 35.401875 -15.05859375 35.42578125 C-17.87890625 35.23046875 -17.87890625 35.23046875 -19.87890625 33.23046875 C-20.07747597 30.35704814 -20.15719571 27.60184887 -20.12890625 24.73046875 C-20.13664062 23.94542969 -20.144375 23.16039063 -20.15234375 22.3515625 C-20.13221412 16.48377662 -20.13221412 16.48377662 -17.87890625 14.23046875 C-15.05859375 14.03515625 -15.05859375 14.03515625 -11.75390625 14.10546875 C-10.65820312 14.12351562 -9.5625 14.1415625 -8.43359375 14.16015625 C-7.59054688 14.18335937 -6.7475 14.2065625 -5.87890625 14.23046875 C-5.90210937 13.38742188 -5.9253125 12.544375 -5.94921875 11.67578125 C-5.96726562 10.58007812 -5.9853125 9.484375 -6.00390625 8.35546875 C-6.02710937 7.26492187 -6.0503125 6.174375 -6.07421875 5.05078125 C-5.75597268 0.45530794 -4.48811611 0.26666551 0 0 Z M-1.87890625 3.23046875 C-1.87890625 8.18046875 -1.87890625 13.13046875 -1.87890625 18.23046875 C-6.49890625 18.23046875 -11.11890625 18.23046875 -15.87890625 18.23046875 C-15.87890625 22.52046875 -15.87890625 26.81046875 -15.87890625 31.23046875 C-11.25890625 31.23046875 -6.63890625 31.23046875 -1.87890625 31.23046875 C-1.87890625 35.85046875 -1.87890625 40.47046875 -1.87890625 45.23046875 C2.41109375 45.23046875 6.70109375 45.23046875 11.12109375 45.23046875 C11.12109375 40.61046875 11.12109375 35.99046875 11.12109375 31.23046875 C15.74109375 31.23046875 20.36109375 31.23046875 25.12109375 31.23046875 C25.12109375 26.94046875 25.12109375 22.65046875 25.12109375 18.23046875 C20.50109375 18.23046875 15.88109375 18.23046875 11.12109375 18.23046875 C11.12109375 13.28046875 11.12109375 8.33046875 11.12109375 3.23046875 C6.83109375 3.23046875 2.54109375 3.23046875 -1.87890625 3.23046875 Z " fill="#CFE4E8" transform="translate(91.87890625,92.76953125)"/>
<path d="M0 0 C0.78375 0.495 1.5675 0.99 2.375 1.5 C1.715 3.81 1.055 6.12 0.375 8.5 C-0.285 8.335 -0.945 8.17 -1.625 8 C-8.55454726 6.83792518 -8.55454726 6.83792518 -15.125 8.875 C-17.4264582 12.90255186 -17.25010134 16.96438097 -16.625 21.5 C-15.38747658 24.68371689 -15.38747658 24.68371689 -12.625 26.5 C-11.16920413 26.59555417 -9.7089204 26.62984691 -8.25 26.625 C-7.47914063 26.62757813 -6.70828125 26.63015625 -5.9140625 26.6328125 C-3.6921811 26.50389788 -1.75881492 26.11383717 0.375 25.5 C2.375 28.5 2.375 28.5 2.25 31.0625 C1.375 33.5 1.375 33.5 -0.3125 34.6328125 C-5.90654051 36.73057769 -12.56038843 36.20049321 -18.125 34.3125 C-22.07507697 31.4486942 -24.78162125 28.00603695 -26.625 23.5 C-27.26334842 17.82166809 -27.7102552 11.6321558 -25 6.4375 C-18.59470028 -1.4848444 -9.39670631 -3.88829226 0 0 Z " fill="#0D0D0E" transform="translate(325.625,103.5)"/>
<path d="M0 0 C0.33 0 0.66 0 1 0 C1 28.38 1 56.76 1 86 C15.19 86 29.38 86 44 86 C47.3 86.66 50.6 87.32 54 88 C56.33042479 88.35309467 58.66277542 88.69514462 61 89 C61 89.33 61 89.66 61 90 C58.36 90 55.72 90 53 90 C53 90.99 53 91.98 53 93 C45.20380412 93.05057624 37.4076503 93.08568114 29.61132812 93.10986328 C26.95734069 93.11994089 24.3033644 93.13360313 21.64941406 93.15087891 C17.84176893 93.17504992 14.03427016 93.18646535 10.2265625 93.1953125 C8.43745956 93.21079636 8.43745956 93.21079636 6.61221313 93.22659302 C4.96072769 93.22681961 4.96072769 93.22681961 3.27587891 93.22705078 C1.8169371 93.23371262 1.8169371 93.23371262 0.32852173 93.24050903 C-2 93 -2 93 -4 91 C-3.51391769 90.34953201 -3.02783539 89.69906403 -2.52702332 89.02888489 C-0.58037389 85.16766223 -0.55991236 81.76414179 -0.56762695 77.5378418 C-0.5574353 76.6983046 -0.54724365 75.8587674 -0.53674316 74.99378967 C-0.50663643 72.22886461 -0.4973508 69.46428613 -0.48828125 66.69921875 C-0.47143284 64.77821198 -0.45328238 62.85721623 -0.43388367 60.93623352 C-0.38639518 55.88763877 -0.35657831 50.83908868 -0.33044434 45.79034424 C-0.30063307 40.6355304 -0.25410465 35.48087042 -0.20898438 30.32617188 C-0.12296431 20.21752841 -0.05561318 10.10885328 0 0 Z " fill="#42858F" transform="translate(33,74)"/>
<path d="M0 0 C1 1 1 1 1.09765625 2.84765625 C1.06510417 4.8984375 1.03255208 6.94921875 1 9 C0.30132812 9.10957031 -0.39734375 9.21914062 -1.1171875 9.33203125 C-2.02726562 9.49058594 -2.93734375 9.64914063 -3.875 9.8125 C-4.77992188 9.96332031 -5.68484375 10.11414063 -6.6171875 10.26953125 C-9.34412478 10.83051301 -9.34412478 10.83051301 -11 14 C-11.3663859 16.41713479 -11.3663859 16.41713479 -11.4140625 19.10546875 C-11.47207031 20.57983398 -11.47207031 20.57983398 -11.53125 22.08398438 C-11.5621875 23.10814453 -11.593125 24.13230469 -11.625 25.1875 C-11.68300781 26.74114258 -11.68300781 26.74114258 -11.7421875 28.32617188 C-11.83648296 30.88393622 -11.92208202 33.44169287 -12 36 C-14.64 36 -17.28 36 -20 36 C-20 24.45 -20 12.9 -20 1 C-17.69 1 -15.38 1 -13 1 C-12.34 2.32 -11.68 3.64 -11 5 C-10.38125 4.360625 -9.7625 3.72125 -9.125 3.0625 C-6.01231427 0.04136385 -4.25979782 -0.21845117 0 0 Z " fill="#264492" transform="translate(477,102)"/>
<path d="M0 0 C2.64 0 5.28 0 8 0 C8 11.55 8 23.1 8 35 C5.36 35 2.72 35 0 35 C0 23.45 0 11.9 0 0 Z " fill="#040404" transform="translate(283,103)"/>
<path d="M0 0 C0.79792969 0.00386719 1.59585938 0.00773437 2.41796875 0.01171875 C3.61486328 0.00591797 3.61486328 0.00591797 4.8359375 0 C10.79136108 0.01011108 10.79136108 0.01011108 11.91796875 1.13671875 C11.99068616 3.4898543 12.00167743 5.84505543 11.98046875 8.19921875 C11.97144531 9.48957031 11.96242188 10.77992187 11.953125 12.109375 C11.94152344 13.10839844 11.92992188 14.10742188 11.91796875 15.13671875 C13.30822266 15.11931641 13.30822266 15.11931641 14.7265625 15.1015625 C15.92410156 15.09253906 17.12164062 15.08351563 18.35546875 15.07421875 C19.55042969 15.06261719 20.74539062 15.05101563 21.9765625 15.0390625 C24.91796875 15.13671875 24.91796875 15.13671875 25.91796875 16.13671875 C26.33837488 21.41623761 26.46474578 26.36151181 23.91796875 31.13671875 C23.58796875 31.13671875 23.25796875 31.13671875 22.91796875 31.13671875 C22.91796875 26.84671875 22.91796875 22.55671875 22.91796875 18.13671875 C18.29796875 18.13671875 13.67796875 18.13671875 8.91796875 18.13671875 C8.91796875 13.18671875 8.91796875 8.23671875 8.91796875 3.13671875 C4.62796875 3.13671875 0.33796875 3.13671875 -4.08203125 3.13671875 C-4.08203125 8.08671875 -4.08203125 13.03671875 -4.08203125 18.13671875 C-8.70203125 18.13671875 -13.32203125 18.13671875 -18.08203125 18.13671875 C-17.58703125 16.65171875 -17.58703125 16.65171875 -17.08203125 15.13671875 C-13.78203125 15.13671875 -10.48203125 15.13671875 -7.08203125 15.13671875 C-7.09363281 14.13769531 -7.10523437 13.13867188 -7.1171875 12.109375 C-7.12621094 10.81902344 -7.13523437 9.52867188 -7.14453125 8.19921875 C-7.15613281 6.91144531 -7.16773437 5.62367187 -7.1796875 4.296875 C-7.01190836 -1.13245809 -4.88447256 0.00829282 0 0 Z " fill="#EEF8FB" transform="translate(94.08203125,92.86328125)"/>
<path d="M0 0 C0.99386719 0.00902344 1.98773438 0.01804687 3.01171875 0.02734375 C4.15060547 0.04474609 4.15060547 0.04474609 5.3125 0.0625 C5.3125 1.3825 5.3125 2.7025 5.3125 4.0625 C0.3625 5.5475 0.3625 5.5475 -4.6875 7.0625 C-4.6875 9.0425 -4.6875 11.0225 -4.6875 13.0625 C-2.7075 13.7225 -0.7275 14.3825 1.3125 15.0625 C0.3225 15.3925 -0.6675 15.7225 -1.6875 16.0625 C-2.42073796 18.07758358 -2.42073796 18.07758358 -2.6875 20.0625 C-9.91080097 20.66444175 -9.91080097 20.66444175 -13.1875 18.125 C-15.20249436 14.01105319 -15.78570876 10.55295359 -14.6875 6.0625 C-10.85975177 0.97483464 -6.05218796 -0.07120221 0 0 Z " fill="#2B4894" transform="translate(431.6875,117.9375)"/>
<path d="M0 0 C0.33 0 0.66 0 1 0 C1.05397335 2.4377963 1.09365616 4.87439685 1.125 7.3125 C1.14175781 8.00279297 1.15851563 8.69308594 1.17578125 9.40429688 C1.21217794 13.17135396 1.14378864 14.78431704 -1 18 C-3.8203125 18.29296875 -3.8203125 18.29296875 -7.125 18.1875 C-8.22070312 18.16042969 -9.31640625 18.13335937 -10.4453125 18.10546875 C-11.70988281 18.05326172 -11.70988281 18.05326172 -13 18 C-12.97679688 18.84304687 -12.95359375 19.68609375 -12.9296875 20.5546875 C-12.90261719 22.19824219 -12.90261719 22.19824219 -12.875 23.875 C-12.85179688 24.96554688 -12.82859375 26.05609375 -12.8046875 27.1796875 C-13 30 -13 30 -15 32 C-17.9093558 32.14517744 -20.719946 32.18630796 -23.625 32.125 C-24.42679687 32.11597656 -25.22859375 32.10695312 -26.0546875 32.09765625 C-28.03658523 32.07406223 -30.01832981 32.03819065 -32 32 C-31.01 30.515 -31.01 30.515 -30 29 C-27.1796875 28.48828125 -27.1796875 28.48828125 -23.875 28.3125 C-21.93625 28.209375 -19.9975 28.10625 -18 28 C-17.67 23.38 -17.34 18.76 -17 14 C-12.05 14 -7.1 14 -2 14 C-1.33320544 10.6660272 -0.78812136 7.54344726 -0.4375 4.1875 C-0.35371094 3.39730469 -0.26992187 2.60710937 -0.18359375 1.79296875 C-0.09271484 0.90544922 -0.09271484 0.90544922 0 0 Z " fill="#EFF9FB" transform="translate(120,110)"/>
<path d="M0 0 C2.875 2.3125 2.875 2.3125 5 5 C5 5.99 5 6.98 5 8 C-0.28 8 -5.56 8 -11 8 C-10 3 -10 3 -8.3125 1.1875 C-5.21737291 -0.40188959 -3.43979993 -0.56159999 0 0 Z " fill="#E5EBF6" transform="translate(501,109)"/>
<path d="M0 0 C0.90105469 0.01804687 1.80210937 0.03609375 2.73046875 0.0546875 C3.41753906 0.07789062 4.10460937 0.10109375 4.8125 0.125 C4.5 3.5 4.5 3.5 3.8125 7.125 C-0.22942978 9.81961986 -2.3926496 9.35700889 -7.1875 9.125 C-8.1875 8.125 -8.1875 8.125 -8.4375 5.1875 C-8.355 4.176875 -8.2725 3.16625 -8.1875 2.125 C-4.87379 -0.08414 -3.8428979 -0.09981553 0 0 Z " fill="#EEF2F8" transform="translate(434.1875,122.875)"/>
<path d="M0 0 C1 1 1 1 1.09765625 2.84765625 C1.04882812 5.92382812 1.04882812 5.92382812 1 9 C-0.62324086 9.22162329 -2.248721 9.42689803 -3.875 9.625 C-4.77992188 9.74101563 -5.68484375 9.85703125 -6.6171875 9.9765625 C-7.40351563 9.98429687 -8.18984375 9.99203125 -9 10 C-9.66 9.34 -10.32 8.68 -11 8 C-11.66 7.67 -12.32 7.34 -13 7 C-12.67 5.68 -12.34 4.36 -12 3 C-11.67 3.66 -11.34 4.32 -11 5 C-10.38125 4.360625 -9.7625 3.72125 -9.125 3.0625 C-6.01231427 0.04136385 -4.25979782 -0.21845117 0 0 Z " fill="#3B559A" transform="translate(477,102)"/>
<path d="M0 0 C2.4375 0.8125 2.4375 0.8125 4.4375 2.8125 C4.6875 5.8125 4.6875 5.8125 4.4375 8.8125 C2.4375 10.8125 2.4375 10.8125 -0.5625 11.0625 C-3.5625 10.8125 -3.5625 10.8125 -5.5625 8.8125 C-5.89911952 5.6482765 -6.06193411 3.62736618 -4.375 0.875 C-2.5625 -0.1875 -2.5625 -0.1875 0 0 Z " fill="#111111" transform="translate(287.5625,87.1875)"/>
<path d="M0 0 C0.33 0 0.66 0 1 0 C1.05397335 2.4377963 1.09365616 4.87439685 1.125 7.3125 C1.15013672 8.34793945 1.15013672 8.34793945 1.17578125 9.40429688 C1.21217794 13.17135396 1.14378864 14.78431704 -1 18 C-5.02590716 18.41820365 -8.94387531 18.12945079 -13 18 C-13 21.96 -13 25.92 -13 30 C-13.33 30 -13.66 30 -14 30 C-14 25.38 -14 20.76 -14 16 C-11.72135417 15.77213542 -9.44270833 15.54427083 -7.1640625 15.31640625 C-4.95727195 15.10909886 -4.95727195 15.10909886 -3 14 C-0.65221302 9.58063627 -0.40576461 4.90120939 0 0 Z " fill="#BED8DD" transform="translate(120,110)"/>
<path d="M0 0 C4.62 0 9.24 0 14 0 C14 4.62 14 9.24 14 14 C17.96 14 21.92 14 26 14 C26 14.33 26 14.66 26 15 C25.16855469 15.06058594 24.33710937 15.12117187 23.48046875 15.18359375 C22.39378906 15.26738281 21.30710937 15.35117188 20.1875 15.4375 C19.10855469 15.51871094 18.02960938 15.59992188 16.91796875 15.68359375 C13.94010095 15.90212461 13.94010095 15.90212461 11 17 C10.94597726 14.89611431 10.90719744 12.79183286 10.875 10.6875 C10.85179688 9.51574219 10.82859375 8.34398437 10.8046875 7.13671875 C11 4 11 4 13 1 C8.71 1 4.42 1 0 1 C0 0.67 0 0.34 0 0 Z " fill="#D9ECF1" transform="translate(76,124)"/>
<path d="M0 0 C0.33 0 0.66 0 1 0 C1 5.28 1 10.56 1 16 C-3.29 16 -7.58 16 -12 16 C-11.67 15.01 -11.34 14.02 -11 13 C-7.7 13 -4.4 13 -1 13 C-1.01160156 12.14535156 -1.02320312 11.29070312 -1.03515625 10.41015625 C-1.04417969 9.30542969 -1.05320312 8.20070313 -1.0625 7.0625 C-1.07410156 5.96035156 -1.08570312 4.85820313 -1.09765625 3.72265625 C-1 1 -1 1 0 0 Z " fill="#F5FBFC" transform="translate(88,95)"/>
<path d="M0 0 C0 0.66 0 1.32 0 2 C0.66 2.33 1.32 2.66 2 3 C-2.31447374 6.61482935 -5.04836977 8.14422653 -10.6875 8.0625 C-11.89986328 8.04896484 -11.89986328 8.04896484 -13.13671875 8.03515625 C-14.05904297 8.01775391 -14.05904297 8.01775391 -15 8 C-15 7.67 -15 7.34 -15 7 C-13.02 7 -11.04 7 -9 7 C-8.3185177 5.10820797 -8.3185177 5.10820797 -8 3 C-8.66 2.34 -9.32 1.68 -10 1 C-3.375 0 -3.375 0 0 0 Z " fill="#3D589F" transform="translate(438,131)"/>
<path d="M0 0 C2.0625 0.4375 2.0625 0.4375 4 1 C4.3690205 11.55808656 4.3690205 11.55808656 2 16 C1.67 16 1.34 16 1 16 C1 11.71 1 7.42 1 3 C-3.62 3 -8.24 3 -13 3 C-13 2.67 -13 2.34 -13 2 C-12.14535156 1.93941406 -11.29070312 1.87882812 -10.41015625 1.81640625 C-8.75306641 1.69072266 -8.75306641 1.69072266 -7.0625 1.5625 C-5.96035156 1.48128906 -4.85820313 1.40007812 -3.72265625 1.31640625 C-1.08890097 1.29581916 -1.08890097 1.29581916 0 0 Z " fill="#EDF6F9" transform="translate(116,108)"/>
<path d="M0 0 C2.14855454 0.6155803 4.29379625 1.24273431 6.4375 1.875 C7.63246094 2.22304687 8.82742187 2.57109375 10.05859375 2.9296875 C13 4 13 4 14 6 C3.44191344 5.22095672 3.44191344 5.22095672 -1 3 C-0.67 2.01 -0.34 1.02 0 0 Z " fill="#DEF1F2" transform="translate(77,157)"/>
<path d="M0 0 C3.63 0 7.26 0 11 0 C10.67 0.66 10.34 1.32 10 2 C10.99 2.66 11.98 3.32 13 4 C10.69 4 8.38 4 6 4 C5.67 4.66 5.34 5.32 5 6 C4.67 4.68 4.34 3.36 4 2 C2.35 2 0.7 2 -1 2 C-0.67 1.34 -0.34 0.68 0 0 Z " fill="#307985" transform="translate(100,162)"/>
<path d="M0 0 C1 2 1 2 0.375 4.0625 C-1 6 -1 6 -3.625 6.75 C-4.800625 6.87375 -4.800625 6.87375 -6 7 C-4.60667426 3.63279613 -3.0210714 2.0140476 0 0 Z " fill="#354E97" transform="translate(489,104)"/>
<path d="M0 0 C0 0.66 0 1.32 0 2 C-2.95664519 3.4783226 -5.74229737 3.06032783 -9 3 C-8.01 2.67 -7.02 2.34 -6 2 C-6 1.34 -6 0.68 -6 0 C-2.25 -1.125 -2.25 -1.125 0 0 Z " fill="#EDF8FA" transform="translate(116,158)"/>
<path d="M0 0 C0 0.33 0 0.66 0 1 C-1.051875 1.0825 -2.10375 1.165 -3.1875 1.25 C-7.27047209 2.05320762 -9.0122727 3.19334709 -12 6 C-9.51338724 -0.92699268 -6.80769872 -0.10980159 0 0 Z " fill="#E2EAF5" transform="translate(478,111)"/>
</svg>
